<svg width="110" height="90" viewBox="0 0 110 90" fill="none" xmlns="http://www.w3.org/2000/svg">
<path d="M78.8098 2.79455C94.4659 2.86985 107.139 15.3886 107.215 30.8544C107.215 59.1892 55 87.2491 55 87.2491C55 87.2491 2.78479 58.7766 2.78479 30.8544C2.78479 15.3575 15.502 2.79455 31.1899 2.79455C40.7929 2.72057 49.7707 7.49191 55 15.4489C60.2649 7.53061 69.2196 2.77164 78.8098 2.79455Z" fill="#1C6CB6"/>
<path d="M53.8749 89.165L53.8581 89.1544L53.8405 89.1451C52.8143 88.6044 39.4448 81.2295 26.3397 70.3585C19.7873 64.923 13.3172 58.6268 8.4889 51.8874C3.65762 45.1439 0.5 37.9986 0.5 30.8544C0.5 14.12 14.2344 0.543587 31.1899 0.543587V0.543621L31.1957 0.543553C40.236 0.438389 48.8405 4.36608 54.6174 11.2317L54.9966 11.6823L55.3797 11.235C66.3277 -1.5466 85.6953 -3.14209 98.636 7.6744C105.539 13.444 109.513 21.9251 109.5 30.8535V30.8542C109.5 38.103 106.341 45.3002 101.511 52.0619C96.6827 58.82 90.2132 65.1029 83.6612 70.5123C70.5572 81.331 57.1884 88.6027 56.1595 89.1448L56.142 89.154L56.1253 89.1646C55.7892 89.3772 55.3995 89.4934 54.9997 89.4999C54.6 89.4937 54.2104 89.3774 53.8749 89.165ZM54.7491 84.5182L54.996 84.6612L55.2447 84.5214C59.2957 82.2445 71.6853 74.9015 83.0691 65.1221C88.7608 60.2325 94.2164 54.7209 98.2526 48.9158C102.286 43.115 104.93 36.9804 104.93 30.8553C104.953 16.5958 93.2726 5.02753 78.8528 5.00392C70.0288 4.9897 61.7919 9.37846 56.957 16.6753C56.1702 17.7366 54.6573 17.9738 53.5744 17.1979C53.3709 17.052 53.192 16.8764 53.0441 16.6773C48.28 9.32877 40.0152 4.93207 31.1866 5.04551C16.7683 5.04725 5.06961 16.5958 5.06961 30.8544C5.06961 36.9123 7.71458 43.0046 11.7474 48.7811C15.7834 54.5621 21.2387 60.0691 26.9301 64.967C38.3133 74.7632 50.7023 82.1747 54.7491 84.5182Z" stroke="white"/>
<g clip-path="url(#clip0)">
<path d="M85.714 61.2261L82.6359 58.2661C82.1412 57.7904 81.3427 57.7937 80.8522 58.2732C80.3615 58.7527 80.3649 59.527 80.8595 60.0026L83.9374 62.9627C84.1833 63.1993 84.5045 63.3174 84.8256 63.3174C85.15 63.3174 85.4745 63.1967 85.721 62.9556C86.2118 62.4761 86.2085 61.7018 85.714 61.2261Z" fill="white"/>
<path d="M79.4995 55.2375C79.0069 54.7599 78.2085 54.7599 77.7157 55.2375L77.7136 55.2396C77.221 55.7171 77.2222 56.4905 77.7147 56.968C77.9606 57.2066 78.2833 57.3258 78.6059 57.3258C78.9292 57.3258 79.2528 57.2061 79.4993 56.9671C79.9919 56.4895 79.9919 55.7152 79.4995 55.2375Z" fill="white"/>
<path d="M68.7467 60.8762L80.9823 49.0132C82.8354 47.2164 82.8354 44.2929 80.9822 42.4961C80.3287 41.8625 79.5306 41.4534 78.69 41.2667C78.9783 40.6659 79.1309 40.0065 79.1309 39.3241C79.1309 38.0932 78.6364 36.936 77.7388 36.0657C77.0348 35.3829 76.1484 34.9421 75.1863 34.7832C75.7279 33.1833 75.3451 31.3509 74.0353 30.0811C73.3151 29.3829 72.4194 28.9575 71.4845 28.8019C71.6412 28.3411 71.7238 27.8545 71.7238 27.3552C71.7238 26.1242 71.2293 24.967 70.3317 24.0967C69.434 23.2264 68.2404 22.747 66.9709 22.747C66.1647 22.747 65.3896 22.9409 64.7009 23.305L64.5792 23.1783C62.9976 21.5304 60.7589 20.5854 58.4375 20.5854H48.5333C47.8368 20.5854 47.272 21.133 47.272 21.8083V23.4119C47.272 24.0537 47.3839 24.6784 47.5981 25.2659C47.0276 25.0362 46.4103 24.9155 45.774 24.9155C44.5044 24.9155 43.3108 25.3949 42.4131 26.2652C41.1026 27.5358 40.7201 29.3695 41.263 30.9699C40.3274 31.1251 39.4304 31.5508 38.7096 32.2496C37.812 33.12 37.3176 34.2772 37.3176 35.508C37.3176 36.0064 37.3999 36.4923 37.5559 36.9521C36.595 37.1114 35.7095 37.552 35.0061 38.2342C33.5588 39.6374 33.2419 41.7281 34.0554 43.4324C33.194 43.6232 32.4028 44.0438 31.7624 44.6645C29.9093 46.4612 29.9093 49.3848 31.7624 51.1816L34.2787 53.6212L21.891 65.6314C21.3985 66.109 21.3985 66.8833 21.891 67.361C22.1373 67.5997 22.4601 67.7192 22.7828 67.7192C23.1055 67.7192 23.4284 67.5998 23.6746 67.361L36.1819 55.2346C36.89 55.6263 37.6935 55.8359 38.5309 55.8359C39.8004 55.8359 40.994 55.3565 41.8917 54.4861C42.867 53.5406 43.3283 52.2828 43.277 51.0416C43.3409 51.0442 43.4049 51.046 43.4688 51.046C44.6857 51.0459 45.9032 50.5967 46.8296 49.6985C47.7272 48.8281 48.2217 47.6709 48.2217 46.4401C48.2217 46.3778 48.2195 46.316 48.217 46.2541C48.2802 46.2565 48.3433 46.2585 48.4066 46.2585C49.6237 46.2585 50.841 45.8093 51.7674 44.911C52.6651 44.0406 53.1595 42.8834 53.1595 41.6526C53.1595 41.5903 53.1574 41.5285 53.1548 41.4666C53.218 41.469 53.2812 41.471 53.3445 41.471C54.5617 41.471 55.7788 41.0218 56.7053 40.1235C58.4465 38.4353 58.5513 35.7524 57.0206 33.944L65.3931 25.8264C65.8144 25.4178 66.3743 25.1929 66.9702 25.1929C67.566 25.1929 68.126 25.4178 68.5473 25.8264C68.9686 26.2349 69.2006 26.7777 69.2006 27.3554C69.2006 27.933 68.9686 28.4761 68.5472 28.8845L67.3128 30.0813L62.8338 34.4239C62.3413 34.9015 62.3413 35.6758 62.8338 36.1535C63.0801 36.3921 63.4029 36.5117 63.7256 36.5117C64.0483 36.5117 64.3711 36.3922 64.6174 36.1535L69.0964 31.8109C69.9659 30.9677 71.3809 30.9676 72.2506 31.8107C73.1202 32.654 73.1202 34.0258 72.2506 34.8691L71.0161 36.066L67.7717 39.2117C67.2791 39.6892 67.2791 40.4635 67.7717 40.9412C68.0179 41.1799 68.3408 41.2995 68.6635 41.2995C68.9862 41.2995 69.309 41.18 69.5553 40.9412L72.7997 37.7956C73.221 37.387 73.781 37.1621 74.3767 37.1621C74.9726 37.1621 75.5326 37.387 75.9539 37.7956C76.3752 38.2041 76.6071 38.7469 76.6071 39.3246C76.6071 39.9022 76.3752 40.4453 75.9538 40.8537L74.2593 42.4965L72.7094 43.9993C72.2168 44.4769 72.2168 45.2512 72.7094 45.7289C72.9557 45.9675 73.2785 46.0871 73.6012 46.0871C73.9239 46.0871 74.2467 45.9676 74.493 45.7289L76.0441 44.225C76.9138 43.3832 78.328 43.3833 79.1972 44.2261C80.0669 45.0692 80.0669 46.4412 79.1972 47.2844L66.9616 59.1474C63.8892 62.1264 59.8058 63.8509 55.4637 64.0037C55.1445 64.015 54.8414 64.1432 54.6159 64.3628L43.3129 75.3622C42.8213 75.8407 42.8226 76.615 43.3162 77.0917C43.5622 77.3294 43.8843 77.4483 44.2064 77.4483C44.5298 77.4483 44.8535 77.3284 45.0998 77.0885L53.4135 68.9982C55.5252 70.3117 58.0087 70.9363 60.5339 70.7744L67.0406 77.0831C67.2869 77.3218 67.6098 77.4414 67.9325 77.4414C68.2553 77.4414 68.578 77.3219 68.8243 77.0831C69.3168 76.6056 69.3168 75.8312 68.8243 75.3536L61.9062 68.6454C61.6443 68.3916 61.2803 68.2618 60.9112 68.2912L60.5114 68.323C58.6656 68.4697 56.8411 68.0777 55.2482 67.2122L56.0588 66.4235C60.8527 66.1368 65.341 64.1783 68.7467 60.8762ZM40.1081 52.7567C39.6868 53.1654 39.1267 53.3902 38.5311 53.3902C37.9352 53.3902 37.3752 53.1654 36.954 52.7567L33.5459 49.4525C32.6763 48.6094 32.6763 47.2375 33.5459 46.3942C33.9672 45.9856 34.5274 45.7608 35.1231 45.7608C35.7188 45.7608 36.279 45.9856 36.7002 46.3942L40.1083 49.6984C40.9777 50.5416 40.9777 51.9135 40.1081 52.7567ZM45.0462 47.969C44.1765 48.8121 42.7612 48.8121 41.8919 47.969L38.4838 44.6647L36.7892 43.0217C35.9196 42.1785 35.9196 40.8066 36.7892 39.9635C37.2105 39.5549 37.7707 39.33 38.3663 39.33C38.9621 39.33 39.5221 39.5549 39.9433 39.9635L45.0459 44.9107C45.0459 44.9107 45.0459 44.9107 45.046 44.9107C45.4674 45.3193 45.6993 45.8622 45.6993 46.4398C45.6993 47.0174 45.4674 47.5605 45.0462 47.969ZM49.9841 43.1813C49.1143 44.0244 47.6992 44.0245 46.8297 43.1813L40.4926 37.0372C40.0713 36.6287 39.8394 36.0858 39.8394 35.5081C39.8394 34.9306 40.0713 34.3875 40.4927 33.9791C40.9276 33.5575 41.4988 33.3468 42.0698 33.3468C42.6405 33.3468 43.2112 33.5573 43.6458 33.9781L46.5341 36.7785L49.9838 40.1231H49.984C50.4051 40.5316 50.637 41.0745 50.637 41.6522C50.6373 42.2299 50.4054 42.773 49.9841 43.1813ZM54.9221 38.3937C54.0524 39.2368 52.6374 39.2368 51.7678 38.3937L45.4307 32.2496C45.4301 32.2489 45.4293 32.2483 45.4286 32.2476L44.1962 31.0527C43.3266 30.2094 43.3266 28.8376 44.1962 27.9944C44.631 27.5727 45.2022 27.3619 45.7733 27.3619C46.3445 27.3619 46.9157 27.5727 47.3504 27.9944L54.9218 35.3353C55.3432 35.7438 55.5751 36.2867 55.5751 36.8643C55.5753 37.4421 55.3435 37.9853 54.9221 38.3937ZM55.2537 32.1983L51.7894 28.8395C52.1822 28.9208 52.5861 28.9639 52.9972 28.9638C53.0064 28.9638 53.0157 28.9638 53.0251 28.9638L56.4864 28.948C57.1829 28.9449 57.745 28.3948 57.7417 27.7194C57.7385 27.046 57.1744 26.5023 56.4806 26.5023C56.4786 26.5023 56.4765 26.5023 56.4745 26.5023L53.0132 26.518C53.0079 26.518 53.0029 26.518 52.9976 26.518C52.1447 26.518 51.3426 26.1971 50.7378 25.6135C50.1292 25.0262 49.7942 24.2444 49.7942 23.4118V23.031H58.4371C60.0607 23.031 61.6262 23.6919 62.7324 24.8444L62.7838 24.8978L55.2537 32.1983Z" fill="white"/>
</g>
<defs>
<clipPath id="clip0">
<rect width="64.5652" height="62.5995" fill="white" transform="translate(21.5217 17.7168)"/>
</clipPath>
</defs>
</svg>
