<svg width="430" height="430" viewBox="0 0 430 430" fill="none" xmlns="http://www.w3.org/2000/svg">
<path d="M389.688 0H40.3125C18.0482 0 0 18.0482 0 40.3125V389.688C0 411.952 18.0482 430 40.3125 430H389.688C411.952 430 430 411.952 430 389.688V40.3125C430 18.0482 411.952 0 389.688 0ZM403.125 389.688C403.125 397.109 397.109 403.125 389.688 403.125H40.3125C32.8908 403.125 26.875 397.109 26.875 389.688V40.3125C26.875 32.8908 32.8908 26.875 40.3125 26.875H389.688C397.109 26.875 403.125 32.8908 403.125 40.3125V389.688Z" fill="white"/>
<path d="M291.728 232.334C286.487 227.124 278.023 227.124 272.781 232.334L241.875 263.241L184.228 205.594C178.987 200.383 170.523 200.383 165.281 205.594L71.2187 299.656C66.0235 304.956 66.1066 313.463 71.406 318.659C73.871 321.076 77.1724 322.451 80.625 322.5H349.375C356.796 322.543 362.847 316.562 362.891 309.141C362.912 305.53 361.479 302.064 358.916 299.522L291.728 232.334Z" fill="white"/>
<path d="M255.312 188.125C277.576 188.125 295.625 170.076 295.625 147.812C295.625 125.549 277.576 107.5 255.312 107.5C233.049 107.5 215 125.549 215 147.812C215 170.076 233.049 188.125 255.312 188.125Z" fill="white"/>
</svg>
