<svg width="379" height="516" viewBox="0 0 379 516" fill="none" xmlns="http://www.w3.org/2000/svg">
<g clip-path="url(#clip0)">
<path d="M299.536 267.791C308.316 271.566 317.623 275.683 317.771 275.749C319.179 276.373 320.665 276.667 322.126 276.667C325.947 276.667 329.611 274.644 331.352 271.191C333.762 266.42 331.587 260.724 326.489 258.467C326.107 258.302 322.418 256.666 317.574 254.55C313.598 260.863 307.188 265.666 299.536 267.791Z" fill="black"/>
<path d="M156.628 266.997L152.203 270.781L146.369 265.634C145.161 265.447 143.974 265.204 142.816 264.89C140.406 265.911 137.533 267.311 134.566 268.951C134.781 267.756 134.772 266.544 134.52 265.369C135.839 264.647 137.136 263.986 138.412 263.357C131.604 260.441 126.091 255.361 122.849 249.054C121.055 250.075 119.296 251.12 117.616 252.183C115.16 250.864 112.796 249.608 110.932 248.623C107.794 254.988 102.352 260.138 95.5998 263.152C101.125 265.842 114.565 272.819 118.297 275.284C119.114 275.824 119.995 276.191 120.898 276.485V327.475C120.898 331.856 121.65 336.028 123.052 339.829C123.012 340.236 122.988 340.646 122.988 341.059V352.51H123.068C123.061 352.675 123.015 352.831 123.015 352.998L123.018 453.701C123.018 460.562 128.96 466.128 136.288 466.128C143.617 466.128 149.556 460.562 149.556 453.701L149.552 352.998C149.552 352.831 149.506 352.675 149.5 352.51H151.494C151.488 352.675 151.442 352.831 151.442 352.995L151.435 453.701C151.435 460.562 157.374 466.128 164.702 466.128C172.028 466.128 177.973 460.562 177.973 453.701L177.979 352.995C177.979 352.825 177.933 352.675 177.926 352.507H178.08L178.09 339.492C178.09 339.492 180.438 336.547 180.438 325.872C180.438 320.137 181.061 298.753 181.061 298.753L181.125 275.368C180.987 275.307 162.135 265.629 162.135 265.629L156.628 266.997Z" fill="#176610"/>
<path d="M87.9754 266.391L82.1415 270.579L77.7161 266.792C68.0578 270.917 56.4395 276.058 56.2824 276.127C54.5935 276.875 52.7938 277.256 50.9355 277.256C48.8769 277.256 46.8953 276.748 45.1294 275.879L45.0893 275.917C33.9148 267.519 24.5955 252.979 21.3289 246.721C18.62 241.496 11.9017 239.32 6.32368 241.854C0.748747 244.392 -1.57799 250.687 1.13089 255.909C3.11247 259.728 21.2641 293.441 48.6519 301.472C50.2328 301.934 51.8138 302.277 53.4009 302.551C53.5796 309.017 53.9094 321.491 53.9094 325.673C53.9094 336.351 56.2546 339.295 56.2546 339.295L56.2639 352.308H56.4673C56.4611 352.478 56.4118 352.637 56.4118 352.81L56.418 453.51C56.418 460.372 62.3565 465.94 69.6881 465.94C77.0135 465.94 82.9551 460.372 82.9551 453.51L82.9521 352.805C82.9521 352.634 82.9058 352.478 82.8966 352.308H84.8936C84.8874 352.478 84.8381 352.637 84.8381 352.805L84.8319 453.51C84.8319 460.372 90.7705 465.94 98.099 465.94C105.427 465.94 111.366 460.378 111.369 453.51L111.375 352.81C111.375 352.637 111.329 352.478 111.32 352.308H111.354V340.857C111.354 340.438 111.326 340.034 111.289 339.627C112.691 335.823 113.44 331.651 113.44 327.27V275.328C108.669 275.686 94.3022 265.917 92.5395 265.167C91.3869 265.481 89.1834 266.2 87.9754 266.391Z" fill="#DDEAEE"/>
<path d="M50.5748 273.91C52.0695 273.91 53.5888 273.61 55.028 272.969C55.1759 272.903 64.4859 268.784 73.3738 264.959C65.4321 262.895 58.7415 258.037 54.5626 251.577C49.9461 253.597 46.476 255.127 46.1093 255.294C40.898 257.598 38.6699 263.429 41.1292 268.307C42.9166 271.844 46.6671 273.91 50.5748 273.91Z" fill="#176610"/>
<path d="M152.212 263.703C168.184 263.703 181.131 251.575 181.131 236.615C181.131 221.655 168.184 209.527 152.212 209.527C136.24 209.527 123.293 221.655 123.293 236.615C123.293 251.575 136.24 263.703 152.212 263.703Z" fill="#176610"/>
<path d="M82.4683 263.703C98.44 263.703 111.388 251.575 111.388 236.615C111.388 221.655 98.44 209.527 82.4683 209.527C66.4966 209.527 53.5489 221.655 53.5489 236.615C53.5489 251.575 66.4966 263.703 82.4683 263.703Z" fill="#DDEAEE"/>
<path d="M227.565 267.952L223.136 271.737L217.305 266.59C216.094 266.402 214.911 266.16 213.749 265.845C211.342 266.87 208.47 268.267 205.499 269.907C205.715 268.712 205.702 267.502 205.45 266.324C206.772 265.606 208.069 264.942 209.342 264.312C202.534 261.397 197.021 256.316 193.779 250.009C191.985 251.031 190.226 252.076 188.546 253.141C186.09 251.822 183.723 250.566 181.862 249.579C178.725 255.944 173.282 261.094 166.53 264.107C172.056 266.798 185.495 273.775 189.227 276.24C190.044 276.78 190.925 277.146 191.828 277.444V328.43C191.828 332.812 192.58 336.983 193.979 340.788C193.939 341.192 193.915 341.599 193.915 342.017V353.469H193.998C193.992 353.633 193.945 353.789 193.945 353.959L193.949 454.659C193.949 461.527 199.89 467.086 207.219 467.086C214.544 467.086 220.489 461.527 220.489 454.659L220.486 353.954C220.486 353.783 220.436 353.633 220.43 353.466H222.424C222.418 353.633 222.369 353.783 222.369 353.951L222.363 454.653C222.363 461.521 228.301 467.08 235.633 467.086C242.958 467.086 248.903 461.521 248.903 454.659L248.909 353.956C248.909 353.789 248.863 353.633 248.857 353.466H249.011L249.02 340.45C249.02 340.45 251.368 337.506 251.368 326.831C251.368 321.095 251.991 299.708 251.991 299.708L252.055 276.326C251.917 276.263 233.066 266.584 233.066 266.584L227.565 267.952Z" fill="black"/>
<path d="M223.145 264.656C239.117 264.656 252.065 252.528 252.065 237.568C252.065 222.607 239.117 210.48 223.145 210.48C207.173 210.48 194.226 222.607 194.226 237.568C194.226 252.528 207.173 264.656 223.145 264.656Z" fill="black"/>
<path d="M293.536 265.043C309.508 265.043 322.456 252.915 322.456 237.955C322.456 222.994 309.508 210.866 293.536 210.866C277.564 210.866 264.617 222.994 264.617 237.955C264.617 252.915 277.564 265.043 293.536 265.043Z" fill="#8A1168"/>
<path d="M372.688 241.075C367.113 238.532 360.401 240.703 357.677 245.916C354.08 252.809 343.168 269.713 330.511 277.435C328.754 278.298 326.782 278.797 324.733 278.797C322.877 278.797 321.075 278.419 319.392 277.672C319.235 277.602 307.62 272.461 297.958 268.339L293.53 272.124L287.699 266.977C286.488 266.789 285.301 266.547 284.143 266.232C281.736 267.257 278.864 268.651 275.893 270.293C276.108 269.098 276.099 267.886 275.847 266.708C277.166 265.989 278.463 265.326 279.739 264.699C272.931 261.784 267.418 256.703 264.176 250.393C262.379 251.415 260.623 252.46 258.943 253.525C256.487 252.206 254.12 250.95 252.259 249.963C249.121 256.331 243.679 261.481 236.927 264.494C242.452 267.187 255.889 274.161 259.621 276.627C260.441 277.164 261.322 277.533 262.225 277.83V328.82C262.225 333.199 262.974 337.37 264.376 341.172C264.336 341.581 264.311 341.988 264.311 342.404V353.855H264.388C264.382 354.023 264.336 354.176 264.336 354.343L264.342 455.049C264.342 461.91 270.284 467.476 277.612 467.476C284.944 467.476 290.882 461.91 290.882 455.043L290.879 354.34C290.879 354.173 290.83 354.017 290.824 353.855H292.818C292.818 354.023 292.769 354.176 292.769 354.34L292.762 455.043C292.762 461.91 298.704 467.473 306.033 467.476C313.358 467.476 319.303 461.91 319.303 455.049L319.309 354.343C319.309 354.176 319.263 354.023 319.256 353.855H319.41L319.42 340.84C319.42 340.84 321.768 337.895 321.768 327.221C321.768 322.582 322.175 307.727 322.335 302.202C323.673 302.081 325.01 301.887 326.348 301.628L326.449 301.668C326.462 301.645 326.48 301.625 326.492 301.602C327.784 301.351 329.072 301.059 330.36 300.681C357.748 292.65 375.903 258.937 377.881 255.118C380.575 249.897 378.254 243.615 372.688 241.075Z" fill="#8A1168"/>
</g>
<ellipse cx="200.498" cy="130.333" rx="8.49776" ry="8.33333" fill="#C4C4C4"/>
<g clip-path="url(#clip1)">
<path d="M228.642 81.3976L225.686 78.5132C225.211 78.0496 224.444 78.0529 223.973 78.5201C223.502 78.9874 223.505 79.7419 223.98 80.2054L226.936 83.0898C227.172 83.3203 227.48 83.4354 227.789 83.4354C228.1 83.4354 228.412 83.3178 228.649 83.0829C229.12 82.6156 229.117 81.8611 228.642 81.3976Z" fill="#DDEAEE"/>
<path d="M222.674 75.562C222.201 75.0966 221.435 75.0966 220.961 75.562L220.959 75.564C220.486 76.0294 220.487 76.7829 220.96 77.2483C221.197 77.4808 221.506 77.5969 221.816 77.5969C222.127 77.5969 222.437 77.4803 222.674 77.2474C223.147 76.782 223.147 76.0275 222.674 75.562Z" fill="#DDEAEE"/>
<path d="M212.349 81.0566L224.098 69.4968C225.878 67.7459 225.878 64.897 224.098 63.1461C223.471 62.5287 222.704 62.1301 221.897 61.9481C222.174 61.3627 222.32 60.7202 222.32 60.0552C222.32 58.8557 221.846 57.7281 220.984 56.88C220.308 56.2147 219.456 55.7851 218.533 55.6304C219.053 54.0713 218.685 52.2857 217.427 51.0483C216.736 50.368 215.875 49.9534 214.978 49.8019C215.128 49.3528 215.208 48.8787 215.208 48.3921C215.208 47.1926 214.733 46.0649 213.871 45.2169C213.009 44.3688 211.863 43.9017 210.644 43.9017C209.869 43.9017 209.125 44.0906 208.464 44.4454L208.347 44.3219C206.828 42.7161 204.678 41.7953 202.449 41.7953H192.938C192.27 41.7953 191.727 42.3289 191.727 42.9869V44.5496C191.727 45.1749 191.835 45.7837 192.04 46.3562C191.493 46.1323 190.9 46.0148 190.289 46.0148C189.07 46.0148 187.923 46.4819 187.061 47.33C185.803 48.5681 185.436 50.3549 185.957 51.9145C185.059 52.0657 184.197 52.4805 183.505 53.1614C182.643 54.0096 182.168 55.1372 182.168 56.3366C182.168 56.8222 182.247 57.2957 182.397 57.7438C181.474 57.899 180.624 58.3284 179.949 58.9931C178.559 60.3605 178.255 62.3978 179.036 64.0585C178.209 64.2445 177.449 64.6543 176.834 65.2592C175.054 67.01 175.054 69.8589 176.834 71.6097L179.25 73.987L167.355 85.6904C166.882 86.1557 166.882 86.9103 167.355 87.3757C167.591 87.6083 167.901 87.7248 168.211 87.7248C168.521 87.7248 168.831 87.6084 169.067 87.3757L181.078 75.5591C181.758 75.9409 182.529 76.1451 183.333 76.1451C184.553 76.1451 185.699 75.6779 186.561 74.8298C187.497 73.9084 187.94 72.6828 187.891 71.4733C187.952 71.4758 188.014 71.4776 188.075 71.4776C189.244 71.4775 190.413 71.0398 191.302 70.1646C192.164 69.3164 192.639 68.1887 192.639 66.9893C192.639 66.9287 192.637 66.8684 192.635 66.8081C192.695 66.8105 192.756 66.8124 192.817 66.8124C193.986 66.8124 195.154 66.3747 196.044 65.4994C196.906 64.6512 197.381 63.5235 197.381 62.3242C197.381 62.2635 197.379 62.2032 197.376 62.1429C197.437 62.1453 197.498 62.1472 197.558 62.1472C198.727 62.1472 199.896 61.7095 200.786 60.8342C202.458 59.1891 202.558 56.5748 201.088 54.8126L209.128 46.9024C209.533 46.5042 210.071 46.2851 210.643 46.2851C211.215 46.2851 211.753 46.5042 212.157 46.9024C212.562 47.3004 212.785 47.8294 212.785 48.3923C212.785 48.9551 212.562 49.4844 212.157 49.8823L210.972 51.0486L206.671 55.2802C206.198 55.7456 206.198 56.5001 206.671 56.9656C206.907 57.1981 207.217 57.3147 207.527 57.3147C207.837 57.3147 208.147 57.1983 208.384 56.9656L212.685 52.7339C213.519 51.9123 214.878 51.9122 215.713 52.7338C216.549 53.5555 216.549 54.8923 215.713 55.714L214.528 56.8804L211.412 59.9456C210.939 60.411 210.939 61.1655 211.412 61.631C211.649 61.8636 211.959 61.9801 212.269 61.9801C212.579 61.9801 212.889 61.8637 213.125 61.631L216.241 58.5657C216.645 58.1676 217.183 57.9485 217.755 57.9485C218.327 57.9485 218.865 58.1676 219.27 58.5657C219.674 58.9638 219.897 59.4928 219.897 60.0557C219.897 60.6185 219.674 61.1478 219.27 61.5457L217.642 63.1466L216.154 64.6109C215.681 65.0763 215.681 65.8308 216.154 66.2963C216.391 66.5289 216.701 66.6454 217.01 66.6454C217.32 66.6454 217.63 66.529 217.867 66.2963L219.356 64.8309C220.191 64.0106 221.549 64.0107 222.384 64.8319C223.219 65.6535 223.219 66.9904 222.384 67.8121L210.635 79.372C207.684 82.2749 203.763 83.9553 199.593 84.1043C199.287 84.1152 198.996 84.2402 198.779 84.4542L187.925 95.1725C187.453 95.6387 187.455 96.3933 187.929 96.8578C188.165 97.0894 188.474 97.2053 188.783 97.2053C189.094 97.2053 189.405 97.0884 189.641 96.8547L197.625 88.9712C199.653 90.2511 202.037 90.8597 204.462 90.7019L210.71 96.8494C210.947 97.082 211.257 97.1985 211.567 97.1985C211.877 97.1985 212.187 97.0821 212.423 96.8494C212.896 96.3841 212.896 95.6296 212.423 95.1641L205.78 88.6273C205.529 88.38 205.179 88.2536 204.825 88.2822L204.441 88.3131C202.668 88.4561 200.916 88.0741 199.387 87.2307L200.165 86.4622C204.768 86.1828 209.078 84.2744 212.349 81.0566ZM184.848 73.1446C184.443 73.5428 183.906 73.7619 183.334 73.7619C182.761 73.7619 182.224 73.5428 181.819 73.1446L178.547 69.9249C177.711 69.1033 177.711 67.7664 178.547 66.9447C178.951 66.5465 179.489 66.3274 180.061 66.3274C180.633 66.3274 181.171 66.5465 181.575 66.9447L184.848 70.1644C185.683 70.986 185.683 72.3229 184.848 73.1446ZM189.59 68.4792C188.755 69.3008 187.396 69.3008 186.561 68.4792L183.288 65.2593L181.661 63.6583C180.826 62.8367 180.826 61.4998 181.661 60.6782C182.066 60.2801 182.603 60.061 183.175 60.061C183.748 60.061 184.285 60.2801 184.69 60.6782L189.59 65.499C189.59 65.499 189.59 65.499 189.59 65.499C189.994 65.8972 190.217 66.4263 190.217 66.9891C190.217 67.5519 189.994 68.0812 189.59 68.4792ZM194.332 63.8139C193.496 64.6354 192.137 64.6355 191.303 63.8139L185.217 57.8267C184.813 57.4287 184.59 56.8997 184.59 56.3367C184.59 55.7739 184.813 55.2447 185.217 54.8468C185.635 54.436 186.183 54.2306 186.732 54.2306C187.28 54.2306 187.828 54.4357 188.245 54.8458L191.019 57.5746L194.331 60.8338H194.331C194.736 61.2319 194.959 61.7609 194.959 62.3238C194.959 62.8867 194.736 63.416 194.332 63.8139ZM199.073 59.1486C198.238 59.9702 196.88 59.9702 196.044 59.1486L189.959 53.1614C189.959 53.1608 189.958 53.1602 189.957 53.1595L188.774 51.9951C187.939 51.1734 187.939 49.8367 188.774 49.015C189.191 48.604 189.74 48.3986 190.288 48.3986C190.837 48.3986 191.385 48.604 191.803 49.015L199.073 56.1683C199.478 56.5663 199.701 57.0954 199.701 57.6583C199.701 58.2213 199.478 58.7507 199.073 59.1486ZM199.392 53.1115L196.065 49.8385C196.442 49.9177 196.83 49.9597 197.225 49.9596C197.234 49.9596 197.243 49.9596 197.252 49.9596L200.576 49.9443C201.244 49.9412 201.784 49.4051 201.781 48.747C201.778 48.0908 201.236 47.561 200.57 47.561C200.568 47.561 200.566 47.561 200.564 47.561L197.24 47.5763C197.235 47.5763 197.23 47.5763 197.225 47.5763C196.406 47.5763 195.636 47.2636 195.055 46.6949C194.471 46.1226 194.149 45.3608 194.149 44.5494V44.1784H202.449C204.008 44.1784 205.511 44.8224 206.573 45.9454L206.623 45.9975L199.392 53.1115Z" fill="#DDEAEE"/>
</g>
<circle cx="141" cy="102" r="10" fill="#C4C4C4"/>
<circle cx="139" cy="30" r="10" fill="#C4C4C4"/>
<circle cx="206" cy="10" r="10" fill="#C4C4C4"/>
<circle cx="263" cy="40" r="10" fill="#C4C4C4"/>
<circle cx="255" cy="112" r="10" fill="#C4C4C4"/>
<defs>
<clipPath id="clip0">
<rect width="379" height="355" fill="white" transform="translate(0 161)"/>
</clipPath>
<clipPath id="clip1">
<rect width="62" height="61" fill="white" transform="translate(167 39)"/>
</clipPath>
</defs>
</svg>
