<svg width="322" height="284" viewBox="0 0 322 284" fill="none" xmlns="http://www.w3.org/2000/svg">
<g clip-path="url(#clip0)">
<path d="M254.487 85.4326C261.947 88.4531 269.854 91.7462 269.98 91.7993C271.176 92.2981 272.438 92.5337 273.679 92.5337C276.926 92.5337 280.039 90.9148 281.518 88.1529C283.566 84.3357 281.717 79.7794 277.387 77.9735C277.062 77.8419 273.928 76.5325 269.812 74.8398C266.434 79.8903 260.988 83.7329 254.487 85.4326Z" fill="black"/>
<path d="M133.072 84.7975L129.312 87.825L124.356 83.7075C123.329 83.5574 122.321 83.3634 121.337 83.1117C119.289 83.9292 116.849 85.0492 114.328 86.3609C114.511 85.4048 114.503 84.4349 114.288 83.495C115.409 82.9177 116.511 82.3889 117.595 81.8855C111.811 79.5531 107.127 75.4887 104.373 70.4429C102.849 71.2604 101.354 72.0963 99.9271 72.9462C97.8403 71.8908 95.832 70.8863 94.248 70.0988C91.5826 75.1908 86.9587 79.3106 81.222 81.7215C85.9166 83.8738 97.3349 89.4553 100.506 91.4275C101.2 91.8593 101.948 92.1526 102.716 92.3882V133.18C102.716 136.685 103.354 140.022 104.546 143.063C104.512 143.389 104.491 143.717 104.491 144.047V153.208H104.559C104.554 153.34 104.514 153.465 104.514 153.598L104.517 234.161C104.517 239.65 109.565 244.102 115.791 244.102C122.018 244.102 127.063 239.65 127.063 234.161L127.06 153.598C127.06 153.465 127.021 153.34 127.016 153.208H128.71C128.705 153.34 128.665 153.465 128.665 153.596L128.66 234.161C128.66 239.65 133.706 244.102 139.932 244.102C146.156 244.102 151.206 239.65 151.206 234.161L151.212 153.596C151.212 153.46 151.172 153.34 151.167 153.206H151.298L151.306 142.793C151.306 142.793 153.301 140.438 153.301 131.898C153.301 127.309 153.83 110.202 153.83 110.202L153.885 91.4945C153.767 91.446 137.751 83.7029 137.751 83.7029L133.072 84.7975Z" fill="#176610"/>
<path d="M74.7442 84.3125L69.7878 87.6633L66.028 84.6335C57.8222 87.9335 47.9513 92.0464 47.8177 92.1018C46.3829 92.6999 44.8538 93.0047 43.275 93.0047C41.526 93.0047 39.8424 92.5983 38.3421 91.9032L38.3081 91.9332C28.8142 85.2155 20.8965 73.5835 18.1211 68.577C15.8196 64.3971 10.1117 62.6559 5.37263 64.6835C0.636141 66.7134 -1.34067 71.75 0.960809 75.9275C2.64437 78.9827 18.0661 105.953 41.3349 112.377C42.678 112.747 44.0212 113.022 45.3696 113.241C45.5215 118.414 45.8017 128.392 45.8017 131.739C45.8017 140.281 47.7942 142.636 47.7942 142.636L47.802 153.047H47.9748C47.9696 153.183 47.9277 153.31 47.9277 153.448L47.9329 234.008C47.9329 239.497 52.9784 243.952 59.2073 243.952C65.431 243.952 70.479 239.497 70.479 234.008L70.4764 153.444C70.4764 153.307 70.4372 153.183 70.4293 153.047H72.126C72.1207 153.183 72.0788 153.31 72.0788 153.444L72.0736 234.008C72.0736 239.497 77.119 243.952 83.3453 243.952C89.5716 243.952 94.6171 239.502 94.6197 234.008L94.6249 153.448C94.6249 153.31 94.5857 153.183 94.5778 153.047H94.6066V143.886C94.6066 143.551 94.583 143.227 94.5516 142.902C95.7429 139.858 96.3792 136.521 96.3792 133.016V91.4621C92.3261 91.7485 80.1196 83.9338 78.6219 83.3334C77.6427 83.5851 75.7706 84.1601 74.7442 84.3125Z" fill="#DDEAEE"/>
<path d="M42.9686 90.3283C44.2384 90.3283 45.5293 90.0881 46.752 89.5755C46.8777 89.5223 54.7875 86.227 62.3387 83.1671C55.5913 81.516 49.907 77.6294 46.3566 72.4612C42.4344 74.0777 39.4862 75.3017 39.1747 75.4356C34.7471 77.2784 32.8541 81.9432 34.9435 85.8459C36.4621 88.6748 39.6486 90.3283 42.9686 90.3283Z" fill="#176610"/>
<path d="M129.32 82.1626C142.89 82.1626 153.89 72.4604 153.89 60.4921C153.89 48.5239 142.89 38.8217 129.32 38.8217C115.75 38.8217 104.75 48.5239 104.75 60.4921C104.75 72.4604 115.75 82.1626 129.32 82.1626Z" fill="#176610"/>
<path d="M70.0654 82.1626C83.6351 82.1626 94.6355 72.4604 94.6355 60.4921C94.6355 48.5239 83.6351 38.8217 70.0654 38.8217C56.4958 38.8217 45.4954 48.5239 45.4954 60.4921C45.4954 72.4604 56.4958 82.1626 70.0654 82.1626Z" fill="#DDEAEE"/>
<path d="M193.34 85.5619L189.577 88.5894L184.624 84.4719C183.595 84.3218 182.589 84.1278 181.602 83.8761C179.557 84.6959 177.117 85.8136 174.593 87.1253C174.776 86.1692 174.766 85.2016 174.551 84.2594C175.674 83.6844 176.777 83.1533 177.858 82.6499C172.074 80.3175 167.39 76.2531 164.635 71.2073C163.112 72.0248 161.617 72.8607 160.19 73.7129C158.103 72.6575 156.092 71.653 154.511 70.8632C151.845 75.9552 147.221 80.075 141.485 82.4859C146.179 84.6382 157.598 90.2197 160.768 92.1919C161.462 92.6237 162.211 92.917 162.978 93.1549V133.944C162.978 137.45 163.617 140.786 164.806 143.83C164.772 144.153 164.751 144.479 164.751 144.814V153.975H164.821C164.816 154.107 164.777 154.231 164.777 154.367L164.779 234.927C164.779 240.421 169.828 244.869 176.054 244.869C182.278 244.869 187.328 240.421 187.328 234.927L187.326 154.363C187.326 154.227 187.284 154.107 187.278 153.973H188.973C188.967 154.107 188.925 154.227 188.925 154.361L188.92 234.923C188.92 240.417 193.966 244.864 200.194 244.869C206.418 244.869 211.469 240.417 211.469 234.927L211.474 154.365C211.474 154.231 211.435 154.107 211.43 153.973H211.56L211.568 143.56C211.568 143.56 213.563 141.204 213.563 132.665C213.563 128.076 214.092 110.966 214.092 110.966L214.147 92.2612C214.03 92.2104 198.013 84.4673 198.013 84.4673L193.34 85.5619Z" fill="black"/>
<path d="M189.585 82.9247C203.155 82.9247 214.155 73.2225 214.155 61.2542C214.155 49.2859 203.155 39.5837 189.585 39.5837C176.015 39.5837 165.015 49.2859 165.015 61.2542C165.015 73.2225 176.015 82.9247 189.585 82.9247Z" fill="black"/>
<path d="M249.39 83.2341C262.959 83.2341 273.96 73.5319 273.96 61.5636C273.96 49.5954 262.959 39.8932 249.39 39.8932C235.82 39.8932 224.819 49.5954 224.819 61.5636C224.819 73.5319 235.82 83.2341 249.39 83.2341Z" fill="#8A1168"/>
<path d="M316.637 64.06C311.901 62.0255 306.198 63.7621 303.884 67.9327C300.828 73.4473 291.557 86.9705 280.804 93.1479C279.311 93.8384 277.635 94.2379 275.894 94.2379C274.318 94.2379 272.786 93.9354 271.357 93.3373C271.223 93.2819 261.355 89.169 253.147 85.8713L249.384 88.8988L244.43 84.7813C243.401 84.6312 242.393 84.4372 241.409 84.1855C239.364 85.0053 236.924 86.1207 234.4 87.4347C234.583 86.4787 234.575 85.5088 234.36 84.5666C235.481 83.9915 236.583 83.4604 237.667 82.9593C231.883 80.6269 227.199 76.5625 224.445 71.5144C222.918 72.3319 221.426 73.1679 219.999 74.02C217.912 72.9646 215.901 71.9601 214.32 71.1703C211.655 76.2646 207.031 80.3844 201.294 82.7953C205.989 84.9499 217.404 90.5292 220.575 92.5013C221.272 92.9308 222.02 93.2264 222.787 93.4643V134.256C222.787 137.759 223.424 141.096 224.615 144.137C224.581 144.465 224.56 144.791 224.56 145.123V154.284H224.626C224.62 154.418 224.581 154.541 224.581 154.675L224.586 235.239C224.586 240.728 229.634 245.181 235.861 245.181C242.09 245.181 247.135 240.728 247.135 235.235L247.132 154.672C247.132 154.538 247.09 154.414 247.085 154.284H248.779C248.779 154.418 248.737 154.541 248.737 154.672L248.732 235.235C248.732 240.728 253.78 245.178 260.006 245.181C266.23 245.181 271.281 240.728 271.281 235.239L271.286 154.675C271.286 154.541 271.247 154.418 271.242 154.284H271.372L271.38 143.872C271.38 143.872 273.375 141.516 273.375 132.976C273.375 129.265 273.721 117.382 273.857 112.962C274.994 112.865 276.13 112.71 277.266 112.502L277.353 112.534C277.363 112.516 277.379 112.5 277.389 112.481C278.486 112.28 279.581 112.047 280.675 111.745C303.944 105.32 319.368 78.3499 321.049 75.2947C323.338 71.1172 321.366 66.0922 316.637 64.06Z" fill="#8A1168"/>
</g>
<defs>
<clipPath id="clip0">
<rect width="322" height="284" fill="white"/>
</clipPath>
</defs>
</svg>
